HIERARCHY
ROOT joint_Root
{
	OFFSET 0.0 0.0 0.0
	CHANNELS 6 Xposition Yposition Zposition Zrotation Xrotation Yrotation 
	JOINT Hips
	{
		OFFSET 4.5925 91.4895 -427.239
		CHANNELS 6 Xposition Yposition Zposition Zrotation Xrotation Yrotation 
		JOINT Spine
		{
			OFFSET 15.7357 0.0 0.0
			CHANNELS 6 Xposition Yposition Zposition Zrotation Xrotation Yrotation 
			JOINT Chest
			{
				OFFSET 8.98455 -0.406207 0.0
				CHANNELS 6 Xposition Yposition Zposition Zrotation Xrotation Yrotation 
				JOINT Neck
				{
					OFFSET 16.3773 0.0 0.0
					CHANNELS 6 Xposition Yposition Zposition Zrotation Xrotation Yrotation 
					JOINT Head
					{
						OFFSET 6.45672 0.0 0.0
						CHANNELS 6 Xposition Yposition Zposition Zrotation Xrotation Yrotation 
						End Site
						{
							OFFSET 0.0 0.0 0.0
						}
					}
				}
				JOINT Shoulder_L
				{
					OFFSET 12.9942 -0.242716 4.98039
					CHANNELS 6 Xposition Yposition Zposition Zrotation Xrotation Yrotation 
					JOINT UpperArm_L
					{
						OFFSET 5.34809 0.0 0.0
						CHANNELS 6 Xposition Yposition Zposition Zrotation Xrotation Yrotation 
						JOINT LowerArm_L
						{
							OFFSET 24.3286 1.87007e-05 0.0
							CHANNELS 6 Xposition Yposition Zposition Zrotation Xrotation Yrotation 
							JOINT Hand_L
							{
								OFFSET 22.2916 0.0 0.0
								CHANNELS 6 Xposition Yposition Zposition Zrotation Xrotation Yrotation 
								End Site
								{
									OFFSET 0.0 0.0 0.0
								}
							}
						}
					}
				}
				JOINT Shoulder_R
				{
					OFFSET 12.9945 -0.242716 -4.98039
					CHANNELS 6 Xposition Yposition Zposition Zrotation Xrotation Yrotation 
					JOINT UpperArm_R
					{
						OFFSET -5.34813 0.0 0.0
						CHANNELS 6 Xposition Yposition Zposition Zrotation Xrotation Yrotation 
						JOINT LowerArm_R
						{
							OFFSET -24.3289 0.000322201 0.0
							CHANNELS 6 Xposition Yposition Zposition Zrotation Xrotation Yrotation 
							JOINT Hand_R
							{
								OFFSET -22.2915 -0.000108084 0.0
								CHANNELS 6 Xposition Yposition Zposition Zrotation Xrotation Yrotation 
								End Site
								{
									OFFSET 0.0 0.0 0.0
								}
							}
						}
					}
				}
			}
		}
		JOINT UpperLeg_L
		{
			OFFSET -2.19248 -6.46944 0.0
			CHANNELS 6 Xposition Yposition Zposition Zrotation Xrotation Yrotation 
			JOINT LowerLeg_L
			{
				OFFSET 39.0811 0.0 -1.23785e-05
				CHANNELS 6 Xposition Yposition Zposition Zrotation Xrotation Yrotation 
				JOINT Foot_L
				{
					OFFSET 40.9854 0.0 -1.26872e-05
					CHANNELS 6 Xposition Yposition Zposition Zrotation Xrotation Yrotation 
					JOINT Toes_L
					{
						OFFSET 11.7543 0.0 0.0
						CHANNELS 6 Xposition Yposition Zposition Zrotation Xrotation Yrotation 
						End Site
						{
							OFFSET 0.0 0.0 0.0
						}
					}
				}
			}
		}
		JOINT UpperLeg_R
		{
			OFFSET -2.19251 6.46944 0.0
			CHANNELS 6 Xposition Yposition Zposition Zrotation Xrotation Yrotation 
			JOINT LowerLeg_R
			{
				OFFSET -39.0811 -0.00228153 -0.0401928
				CHANNELS 6 Xposition Yposition Zposition Zrotation Xrotation Yrotation 
				JOINT Foot_R
				{
					OFFSET -40.9854 0.0 0.0
					CHANNELS 6 Xposition Yposition Zposition Zrotation Xrotation Yrotation 
					JOINT Toes_R
					{
						OFFSET -11.7543 0.0 0.0
						CHANNELS 6 Xposition Yposition Zposition Zrotation Xrotation Yrotation 
						End Site
						{
							OFFSET 0.0 0.0 0.0
						}
					}
				}
			}
		}
	}
}
MOTION
Frames:	6
Frame Time:	0.0333333
0.000000 0.000000 0.000000 0.000000 0.000000 -0.000000 126.309000 91.401900 157.359000 123.869000 -73.691200 24.310200 15.735700 0.000005 -0.000001 124.235000 83.431900 -126.330000 8.984550 -0.406207 -0.000000 3.258290 7.464740 -4.403310 16.377300 -0.000001 -0.000001 -0.332184 -10.278000 2.954650 6.456720 -0.000001 -0.000000 -2.717100 -16.275300 1.435560 12.994200 -0.242716 4.980390 -85.637400 -10.994800 -68.198200 5.348090 -0.000007 -0.000001 -83.599900 44.751900 47.612300 24.328600 0.000019 0.000005 5.483260 1.924720 -70.714900 22.291600 -0.000001 0.000005 0.067428 5.530330 -7.814880 12.994500 -0.242716 -4.980390 90.379200 -2.367240 -80.896800 -5.348130 -0.000001 -0.000004 -46.284000 32.341500 -67.325100 -24.328900 0.000322 -0.000009 -9.310330 5.943350 -122.276000 -22.291500 -0.000108 -0.000004 15.606100 5.523940 -7.530790 -2.192480 -6.469440 -0.000000 -179.381000 -4.455520 -30.016700 39.081100 -0.000007 -0.000012 0.043647 -0.047272 42.714800 40.985400 -0.000006 -0.000013 3.285830 -5.227160 -64.874200 11.754300 -0.000000 0.000003 -0.005445 -0.065719 -19.251000 -2.192510 6.469440 -0.000001 174.745000 11.237600 -175.994000 -39.081100 -0.002282 -0.040193 0.017551 -0.040744 19.249300 -40.985400 0.000008 0.000006 26.054200 26.744200 -70.889300 -11.754300 -0.000006 -0.000006 -0.064658 -0.346622 -30.905300
0.000000 0.000000 0.000000 0.000000 0.000000 -0.000000 123.987000 90.556900 160.158000 127.406000 -76.851400 28.208900 15.735700 0.000005 -0.000001 123.728000 83.168500 -125.604000 8.984550 -0.406207 -0.000000 3.753570 7.642260 -4.004170 16.377300 -0.000001 -0.000001 -1.753810 -9.072250 2.010380 6.456720 -0.000001 -0.000000 -3.692630 -15.306900 1.231960 12.994200 -0.242716 4.980390 -85.871200 -10.363300 -68.135500 5.348090 -0.000007 -0.000001 -80.594200 41.887900 43.765300 24.328600 0.000019 0.000005 6.089780 1.777270 -73.790600 22.291600 -0.000001 0.000005 2.135260 5.513600 -7.095730 12.994500 -0.242716 -4.980390 90.208800 -1.377500 -81.386200 -5.348130 -0.000001 -0.000004 -45.502200 34.907500 -63.126300 -24.328900 0.000322 -0.000009 -8.571760 4.833290 -119.202000 -22.291500 -0.000108 -0.000004 15.429400 5.519020 -7.319700 -2.192480 -6.469440 -0.000000 -179.237000 -9.056660 -29.158900 39.081100 -0.000007 -0.000012 -0.003346 0.005091 33.318400 40.985400 -0.000006 -0.000013 -3.550670 1.886020 -66.073900 11.754300 -0.000000 0.000003 -0.006034 -0.071149 -19.472500 -2.192510 6.469440 -0.000001 174.478000 5.387890 -175.691000 -39.081100 -0.002282 -0.040193 0.024548 -0.051812 22.282500 -40.985400 0.000008 0.000006 25.711700 23.632400 -70.655100 -11.754300 -0.000006 -0.000006 -0.085331 -0.406600 -33.477500
0.000000 0.000000 0.000000 0.000000 0.000000 -0.000000 121.205000 89.128600 163.237000 130.555000 -78.164500 32.094900 15.735700 0.000005 -0.000001 119.200000 82.957900 -121.027000 8.984550 -0.406207 -0.000000 4.668870 6.908200 -3.935360 16.377300 -0.000001 -0.000001 -2.645520 -8.251690 1.661890 6.456720 -0.000001 -0.000000 -5.029110 -14.189400 1.557230 12.994200 -0.242716 4.980390 -86.889600 -8.086500 -68.880700 5.348090 -0.000007 -0.000001 -75.240500 37.818200 36.919400 24.328600 0.000019 0.000005 5.278960 1.256830 -76.652400 22.291600 -0.000001 0.000005 4.307100 5.504680 -6.723960 12.994500 -0.242716 -4.980390 89.910700 0.657309 -82.247400 -5.348130 -0.000001 -0.000004 -46.924300 38.168500 -54.205100 -24.328900 0.000322 -0.000009 -8.645430 3.991960 -114.606000 -22.291500 -0.000108 -0.000004 16.347000 5.526090 -7.615650 -2.192480 -6.469440 -0.000000 179.267000 -12.755900 -29.531700 39.081100 -0.000007 -0.000012 -0.094306 0.159598 30.578900 40.985400 -0.000006 -0.000013 -7.346630 4.284900 -66.645200 11.754300 -0.000000 0.000003 -0.007112 -0.080630 -19.859300 -2.192510 6.469440 -0.000001 173.145000 1.664880 -174.516000 -39.081100 -0.002282 -0.040193 0.030693 -0.056641 25.801200 -40.985400 0.000008 0.000006 25.206000 21.838400 -72.242600 -11.754300 -0.000006 -0.000006 -0.107855 -0.463640 -35.963900
0.000000 0.000000 0.000000 0.000000 0.000000 -0.000000 117.823000 87.478500 166.471000 131.002000 -77.328100 33.078500 15.735700 0.000005 -0.000001 111.691000 83.125600 -113.598000 8.984550 -0.406207 -0.000000 5.113500 5.115340 -4.040130 16.377300 -0.000001 -0.000001 -2.690540 -8.154670 2.001150 6.456720 -0.000001 -0.000000 -5.899140 -12.896500 1.594260 12.994200 -0.242716 4.980390 -88.733200 -3.504770 -70.116900 5.348090 -0.000007 -0.000001 -67.999900 32.801600 28.345400 24.328600 0.000019 0.000005 1.428160 0.236513 -80.764000 22.291600 -0.000001 0.000005 6.136350 5.506870 -6.810800 12.994500 -0.242716 -4.980390 89.477300 4.042120 -82.627000 -5.348130 -0.000001 -0.000004 -50.632100 40.762500 -40.294600 -24.328900 0.000322 -0.000009 -12.401100 3.718290 -106.463000 -22.291500 -0.000108 -0.000004 18.970300 5.564640 -9.404360 -2.192480 -6.469440 -0.000000 176.755000 -13.404300 -33.423500 39.081100 -0.000007 -0.000012 -0.097452 0.125127 37.912900 40.985400 -0.000006 -0.000013 -5.238550 3.255690 -61.658600 11.754300 -0.000000 0.000003 -0.004794 -0.059467 -18.996200 -2.192510 6.469440 -0.000001 171.263000 0.722980 -173.540000 -39.081100 -0.002282 -0.040193 0.034050 -0.052211 30.495400 -40.985400 0.000008 0.000006 24.990000 20.423100 -72.677100 -11.754300 -0.000006 -0.000006 -0.158460 -0.571174 -40.783600
0.000000 0.000000 0.000000 0.000000 0.000000 -0.000000 113.480000 85.731100 169.550000 126.932000 -76.654700 30.279100 15.735700 0.000005 -0.000001 105.569000 83.392400 -107.183000 8.984550 -0.406207 -0.000000 5.024630 3.578380 -3.382980 16.377300 -0.000001 -0.000001 -2.111150 -8.596720 2.791010 6.456720 -0.000001 -0.000000 -4.846630 -11.840400 1.385830 12.994200 -0.242716 4.980390 -90.863600 2.350340 -69.835300 5.348090 -0.000007 -0.000001 -60.395800 29.457300 16.439200 24.328600 0.000019 0.000005 -8.632030 -0.524194 -86.520600 22.291600 -0.000001 0.000005 7.932260 5.512840 -7.052730 12.994500 -0.242716 -4.980390 88.838200 7.619780 -81.309100 -5.348130 -0.000001 -0.000004 -56.540100 40.972300 -23.147200 -24.328900 0.000322 -0.000009 -20.186300 0.849956 -92.338700 -22.291500 -0.000108 -0.000004 18.810800 5.588960 -10.705700 -2.192480 -6.469440 -0.000000 177.396000 -10.664900 -33.312700 39.081100 -0.000007 -0.000012 -0.282537 0.262370 47.120200 40.985400 -0.000006 -0.000013 -4.749790 2.871620 -68.983100 11.754300 -0.000000 0.000003 -0.000005 -0.000075 -16.580500 -2.192510 6.469440 -0.000001 170.788000 0.732862 -173.526000 -39.081100 -0.002282 -0.040193 0.042829 -0.050315 38.166500 -40.985400 0.000008 0.000006 24.042800 20.146400 -68.439900 -11.754300 -0.000006 -0.000006 -0.272123 -0.753297 -49.496100
0.000000 0.000000 0.000000 0.000000 0.000000 -0.000000 109.113000 84.702800 172.227000 119.975000 -74.790400 25.807000 15.735700 0.000005 -0.000001 98.825300 83.213200 -100.287000 8.984550 -0.406207 -0.000000 5.678350 2.104020 -3.025270 16.377300 -0.000001 -0.000001 -0.929142 -9.502410 3.106930 6.456720 -0.000001 -0.000000 -3.358450 -12.733700 3.634240 12.994200 -0.242716 4.980390 -92.421200 6.214290 -68.663200 5.348090 -0.000007 -0.000001 -56.385400 26.940000 -1.708100 24.328600 0.000019 0.000005 -13.970100 0.537220 -92.154700 22.291600 -0.000001 0.000005 10.030200 5.532420 -7.901090 12.994500 -0.242716 -4.980390 88.141100 9.864670 -79.273900 -5.348130 -0.000001 -0.000004 -64.359500 35.475400 -6.536070 -24.328900 0.000322 -0.000009 -23.485900 -8.373170 -71.507700 -22.291500 -0.000108 -0.000004 18.357100 5.635930 -13.573500 -2.192480 -6.469440 -0.000000 177.874000 -8.094220 -29.708200 39.081100 -0.000007 -0.000012 -0.344081 0.270368 51.841700 40.985400 -0.000006 -0.000013 -3.926280 2.954270 -75.017900 11.754300 -0.000000 0.000003 -0.000206 -0.001895 -16.649000 -2.192510 6.469440 -0.000001 171.044000 1.459440 -176.597000 -39.081100 -0.002282 -0.040193 0.047864 -0.036762 50.514100 -40.985400 0.000008 0.000006 17.115300 21.434800 -56.361700 -11.754300 -0.000006 -0.000006 -0.253916 -0.727952 -48.230800
